<?xml version="1.0" standalone="no"?>
<!DOCTYPE svg PUBLIC "-//W3C//DTD SVG 20010904//EN"
 "http://www.w3.org/TR/2001/REC-SVG-20010904/DTD/svg10.dtd">
<svg version="1.0" xmlns="http://www.w3.org/2000/svg"
 width="896.000000pt" height="896.000000pt" viewBox="0 0 896.000000 896.000000"
 preserveAspectRatio="xMidYMid meet">
<metadata>
Created by potrace 1.14, written by Peter Selinger 2001-2017
</metadata>
<g transform="translate(0.000000,896.000000) scale(0.100000,-0.100000)"
fill="#000000" stroke="none">
<path d="M1142 5098 c3 -2931 6 -3871 15 -3898 6 -19 14 -48 17 -65 13 -79 45
-190 63 -218 4 -6 8 -18 9 -25 2 -8 14 -38 28 -68 14 -30 26 -57 27 -62 0 -4
6 -14 13 -22 7 -8 25 -37 41 -65 117 -207 350 -423 575 -533 68 -33 220 -93
220 -87 0 2 18 -2 40 -10 22 -8 42 -14 45 -15 3 0 6 0 8 -1 1 0 16 -2 32 -4
17 -2 55 -8 85 -14 35 -6 791 -10 2120 -10 2110 0 2091 0 2255 35 52 11 43 8
165 53 47 17 90 33 95 34 6 1 12 4 15 7 3 3 28 16 55 30 28 14 52 28 53 33 2
4 10 7 18 7 8 0 14 5 14 10 0 6 5 10 10 10 10 0 61 33 86 55 6 6 23 19 38 30
38 28 155 143 196 194 19 24 40 48 45 55 6 6 25 34 42 61 18 28 37 55 43 62 5
7 10 15 10 19 0 3 10 20 22 37 13 18 21 32 20 32 -2 0 10 30 27 68 26 59 58
141 65 172 2 6 6 17 9 25 4 8 9 26 11 40 3 14 5 25 6 25 1 0 3 16 6 35 2 19
10 50 17 70 9 27 12 888 15 3898 l2 3862 -3340 0 -3340 0 2 -3862z"/>
</g>
</svg>
