<svg width="42" height="45" viewBox="0 0 42 45" fill="none" xmlns="http://www.w3.org/2000/svg">
<path d="M0.5 0.5H41.5V37C41.5 41.1421 38.1421 44.5 34 44.5H8C3.85786 44.5 0.5 41.1421 0.5 37V0.5Z" fill="#F8FAFC" stroke="#080B15"/>
<path d="M8.81818 4H5V37.9709C5 39.5964 6.71273 40.9055 8.81818 40.9055H12.6364V4H8.81818Z" fill="#080B15"/>
<path d="M33.6364 4H29.8182V40.9055H33.6364C35.7418 40.9055 37.4545 39.5964 37.4545 37.9709V4H33.6364Z" fill="#080B15"/>
<path d="M21.2327 4H17.4146V40.9055H17.4255L20.2618 39.88C20.8836 39.6618 21.5818 39.6618 22.2036 39.88L25.04 40.9055H25.0509V4H21.2327Z" fill="#080B15"/>
</svg>
