<svg xmlns="http://www.w3.org/2000/svg" viewBox="0 0 112.14 82.32"><g data-name="Capa 2"><g data-name="Capa 1"><path d="M51.42 52a10.29 10.29 0 00-4.05-.82 10.62 10.62 0 00-4.14.82 10.51 10.51 0 00-3.37 2.24 10.67 10.67 0 00-2.25 3.35 10.38 10.38 0 00-.81 4.1 10.13 10.13 0 00.81 4.07 10.81 10.81 0 002.25 3.33 10.51 10.51 0 003.37 2.24 10.66 10.66 0 008.19 0 11 11 0 003.38-2.25 10.55 10.55 0 002.27-3.31 10.49 10.49 0 00-2.27-11.51A11 11 0 0051.42 52z" fill="none"/><path d="M17.68 33.24c.6-1.42 1.21-2.79 1.83-4.09s1.27-2.61 1.93-3.89 1.34-2.61 2-3.92c.18-.35.35-.7.52-1.06l7.74 16 15.85-34.7L41.16 0l-.56 1.17c-1.37 2.81-2.71 5.62-4 8.34l-1.69 3.61c-.6 1.27-1.18 2.53-1.76 3.77s-1.09 2.4-1.6 3.54c-.24-.51-.48-1-.69-1.41-.62-1.22-1.17-2.26-1.63-3.11s-.84-1.55-1.16-2.18c-.21-.41-.43-.87-.64-1.36l4.23-10.2-6.32-1.7-.52 1.34c-.18.48-.4 1-.66 1.61l-.3.68L22.37.48l-6.28 1.71 4.22 9.89.09.21c-.79 1.86-1.47 3.38-2 4.53s-1.11 2.26-1.54 3l-.57 1L6.6 0 .25 1.59l16 35zM55.13.33h6.46V33.7h-6.46zm37.33 26.85H75.65V.33h-6.46V33.7h23.27v-6.52zM19.92 60.29a13.56 13.56 0 00-4-1.66 24 24 0 00-3.59-.57 1.68 1.68 0 00-.5-.07h-.76c-.49-.06-1-.13-1.45-.21a3.81 3.81 0 01-1.35-.53A4 4 0 017.15 56a2.71 2.71 0 01-.42-1.2 2.4 2.4 0 01.46-1.51A4.58 4.58 0 018.68 52a7.9 7.9 0 012.19-.84 14 14 0 015.78 0 33.26 33.26 0 014 1.1l1.75.58.31-1.84c.08-.39.13-.67.17-.84a.45.45 0 010-.11l1-3.19-1.43-.52-1.87-.64c-.73-.24-1.48-.46-2.22-.64s-1.44-.33-2.1-.45a11 11 0 00-1.93-.19 20 20 0 00-2.33.18c-.8.1-1.43.19-1.91.28a13.85 13.85 0 00-6.85 3.38 8.55 8.55 0 00-2.8 6.43 8.66 8.66 0 001.41 4.76 10.76 10.76 0 003.23 3.28l.1.06A12 12 0 008.76 64a23.74 23.74 0 003.38.37q.72 0 1.59.18a8.28 8.28 0 011.52.39 7.49 7.49 0 011.37.62 2.59 2.59 0 01.78.69 3.36 3.36 0 01.43.81 2.31 2.31 0 01.17.81 3.77 3.77 0 01-.39 1.78 3.37 3.37 0 01-1.09 1.25 5.81 5.81 0 01-1.81.85 8.12 8.12 0 01-2.29.31h-1.83a16.37 16.37 0 01-3.26-.42c-1.42-.3-2.8-.61-4.13-.91l-1.45-.34L0 76.19l1.49.48c.76.25 1.58.48 2.45.7s1.74.42 2.63.6 1.75.34 2.55.46a16.05 16.05 0 002.39.19 17.85 17.85 0 004.78-.62 12.51 12.51 0 004.11-2 9.85 9.85 0 002.86-3.27 9.36 9.36 0 001.09-4.52 9.06 9.06 0 00-1.24-4.46 10.22 10.22 0 00-3.19-3.46zm39.48-10.6A16.94 16.94 0 0040.76 46a17.28 17.28 0 00-9.09 9.1 17.06 17.06 0 000 13.23 16.9 16.9 0 003.68 5.37 17.51 17.51 0 005.4 3.63 17 17 0 0013.24 0 17 17 0 005.4-3.64A17.6 17.6 0 0063 68.34a17 17 0 000-13.23 17.58 17.58 0 00-3.6-5.42zm-1.52 12a10.21 10.21 0 01-.81 4.08 10.55 10.55 0 01-2.27 3.31 11 11 0 01-3.38 2.25 10.66 10.66 0 01-8.19 0 10.51 10.51 0 01-3.37-2.24 10.81 10.81 0 01-2.25-3.33 10.13 10.13 0 01-.81-4.07 10.38 10.38 0 01.81-4.1 10.67 10.67 0 012.25-3.35A10.51 10.51 0 0143.23 52a10.62 10.62 0 014.14-.82 10.29 10.29 0 014.05.82 11 11 0 013.38 2.25 10.4 10.4 0 013.08 7.44zm34.2 3.84L71.94 41.48v36.85h6V58.28l20.2 24.04v-37.3h-6.06v20.51zm19.2 7.05a3.53 3.53 0 00-5.31 0 3.76 3.76 0 00-.92 2.47 3.61 3.61 0 001 2.52 3.38 3.38 0 002.55 1.08 3.44 3.44 0 002.66-1.11 3.66 3.66 0 00.91-2.49 3.86 3.86 0 00-.89-2.47z" fill="#fff"/></g></g></svg>