<svg xmlns="http://www.w3.org/2000/svg" viewBox="0 0 167.83 134.3"><defs><style>.cls-1{fill:#fff;}</style></defs><g id="Capa_2" data-name="Capa 2"><g id="Capa_1-2" data-name="Capa 1"><path class="cls-1" d="M.54,20.3a3.31,3.31,0,0,1-.3-3,2.49,2.49,0,0,1,2.5-1.2h10.9a3.08,3.08,0,0,1,1.9.6,3.53,3.53,0,0,1,1.2,1.7c.5,1.5,1,3.2,1.6,5.1l1.8,5.7c.6,1.9,1.3,3.9,1.9,5.8s1.2,3.7,1.7,5.3,1,3,1.4,4.2.7,2.1.9,2.6l9.1-28.6a3.81,3.81,0,0,1,1.3-1.8,3.68,3.68,0,0,1,2-.5h10.1a4.7,4.7,0,0,1,1.9.3,2.36,2.36,0,0,1,.9.8,2.25,2.25,0,0,1,.1,1.2,10.26,10.26,0,0,1-.4,1.4l-4.7,11.5c.2.5.6,1.3,1.2,2.5s1.2,2.5,1.9,3.9,1.5,3,2.2,4.6a40,40,0,0,1,1.9,4.5L64,18.5a4.65,4.65,0,0,1,1.1-1.8,2.86,2.86,0,0,1,1.7-.5h9.5a3.89,3.89,0,0,1,2.8.8c.5.5.5,1.5.1,2.9L59.14,68.7a3.66,3.66,0,0,1-1.2,1.3,3.75,3.75,0,0,1-2.3.5h-4.5a4.77,4.77,0,0,1-2.4-.5,4.07,4.07,0,0,1-1.2-1.4l-8-19.4-7.8,19.5a6.89,6.89,0,0,1-1.1,1.3,2.7,2.7,0,0,1-1.9.5h-5.1a4.77,4.77,0,0,1-2.4-.5,2.56,2.56,0,0,1-1-1.3Z"/><path class="cls-1" d="M86.34,3a2.89,2.89,0,0,1,.8-2.3,3.29,3.29,0,0,1,2.4-.7h9.9a3.61,3.61,0,0,1,2.4.7,2.74,2.74,0,0,1,.9,2.3v7.6a3.55,3.55,0,0,1-.2,1,6.73,6.73,0,0,1-.7,1.1,3.92,3.92,0,0,1-1,.8,3.19,3.19,0,0,1-1.4.3h-9.9a2.86,2.86,0,0,1-3.2-3.2Zm0,16.4a4.07,4.07,0,0,1,.8-2.4,2.72,2.72,0,0,1,2.4-1h9.8a5.16,5.16,0,0,1,1.1.2,4.13,4.13,0,0,1,1.1.7,9,9,0,0,1,.9,1,3.26,3.26,0,0,1,.4,1.4V67a3.33,3.33,0,0,1-.9,2.5,3.54,3.54,0,0,1-2.6.8h-9.8c-2.1,0-3.2-1.1-3.2-3.3Z"/><path class="cls-1" d="M116.24,3.2a3.51,3.51,0,0,1,.7-2.3,2.82,2.82,0,0,1,2.4-.9h10.5a2.92,2.92,0,0,1,.9.2,5.5,5.5,0,0,1,.9.7,3.59,3.59,0,0,1,.7,1,2.77,2.77,0,0,1,.3,1.3V67.1a3.33,3.33,0,0,1-.9,2.5,3.19,3.19,0,0,1-2.4.8h-9.9a3.29,3.29,0,0,1-2.4-.8,3.73,3.73,0,0,1-.7-2.5V3.2Z"/><path class="cls-1" d="M12.14,116.3a11,11,0,0,0,2.5,1.9,21,21,0,0,0,2.6,1.3,13.61,13.61,0,0,0,2.2.7c.6.1,1.1.2,1.3.2a17.86,17.86,0,0,0,2.1-.1,10,10,0,0,0,2.4-.4,6.26,6.26,0,0,0,2-1,2.52,2.52,0,0,0,.8-2.1,3.56,3.56,0,0,0-.5-1.9,3.33,3.33,0,0,0-1.4-1.2,16.47,16.47,0,0,0-2.2-.9c-.9-.3-1.8-.6-2.9-.9a35.9,35.9,0,0,1-8.5-3.3,19.5,19.5,0,0,1-5.3-4.3,14,14,0,0,1-2.7-5.1,21.39,21.39,0,0,1-.8-5.8,15.46,15.46,0,0,1,1.4-6.5,14.76,14.76,0,0,1,4-5,17.37,17.37,0,0,1,6.2-3.2,25.61,25.61,0,0,1,8.1-1.1,26,26,0,0,1,5,.4,21.46,21.46,0,0,1,4.5,1.4,23.21,23.21,0,0,1,4.2,2.5,26.55,26.55,0,0,1,4,3.6,2.47,2.47,0,0,1,.7,1.6,2.23,2.23,0,0,1-1,1.6c-1.1.9-2.2,1.8-3.2,2.7s-2.1,1.9-3.1,3a1.59,1.59,0,0,1-1,.5,1.7,1.7,0,0,1-1,0,3.55,3.55,0,0,1-.9-.4,5,5,0,0,1-.8-.7,6.7,6.7,0,0,0-3.4-2.2,12.31,12.31,0,0,0-3.6-.6,6.23,6.23,0,0,0-3.3.7,2.4,2.4,0,0,0-1.2,2.2,2.49,2.49,0,0,0,.8,1.7,7.68,7.68,0,0,0,1.8,1,8.65,8.65,0,0,0,2.3.6c.8.2,1.6.3,2.2.5a58.45,58.45,0,0,1,7.1,2.7,24.45,24.45,0,0,1,5.6,3.6,14.57,14.57,0,0,1,3.7,5.1,17.48,17.48,0,0,1,1.3,7.2,17.31,17.31,0,0,1-1.7,7.6,16.68,16.68,0,0,1-4.6,5.6,21.9,21.9,0,0,1-7,3.5,30.49,30.49,0,0,1-8.7,1.2,32.87,32.87,0,0,1-5.4-.5,24.62,24.62,0,0,1-5.3-1.5,26.24,26.24,0,0,1-4.9-2.7,19.38,19.38,0,0,1-4.1-4,5.39,5.39,0,0,1-.7-1.3,3,3,0,0,1-.2-1.3,2.66,2.66,0,0,1,.3-1.2,2.18,2.18,0,0,1,.7-.9L8,115.3q1.05-.9,1.8-.6A7.4,7.4,0,0,1,12.14,116.3Z"/><path class="cls-1" d="M51.84,106.1a27.83,27.83,0,0,1,1-7.6,28.66,28.66,0,0,1,2.8-6.7,27.66,27.66,0,0,1,10.1-9.9,30.57,30.57,0,0,1,6.7-2.8,28.31,28.31,0,0,1,18.4,1.2,27.14,27.14,0,0,1,8.9,5.9,29.07,29.07,0,0,1,6,8.9,27.17,27.17,0,0,1,2.2,11.1,26.63,26.63,0,0,1-1,7.5,28.66,28.66,0,0,1-2.8,6.7A28.2,28.2,0,0,1,94,130.5a30.57,30.57,0,0,1-6.7,2.8,28.62,28.62,0,0,1-15,0,28.66,28.66,0,0,1-6.7-2.8,28.2,28.2,0,0,1-10.1-10.1,26.39,26.39,0,0,1-2.8-6.7A32.25,32.25,0,0,1,51.84,106.1Zm15.6,0a15.53,15.53,0,0,0,.9,5.3,13.14,13.14,0,0,0,2.5,4.3,11.76,11.76,0,0,0,9.1,3.8,11.46,11.46,0,0,0,5-1,10.75,10.75,0,0,0,3.8-2.8,13.73,13.73,0,0,0,2.4-4.3,15.12,15.12,0,0,0,.8-5.3,17.68,17.68,0,0,0-.8-5.2,15.52,15.52,0,0,0-2.4-4.4,11.26,11.26,0,0,0-3.8-3,11.81,11.81,0,0,0-5-1.1,12.74,12.74,0,0,0-5.2,1.1,11.35,11.35,0,0,0-3.9,3,13.62,13.62,0,0,0-2.5,4.4A14.56,14.56,0,0,0,67.44,106.1Z"/><path class="cls-1" d="M166.64,92.6a22.31,22.31,0,0,0-4.1-7.6,18,18,0,0,0-6.5-5.1,19.16,19.16,0,0,0-8.7-1.9,24,24,0,0,0-6.2.7,20,20,0,0,0-4.9,1.9,13.87,13.87,0,0,0-3.5,2.6c-.1.1-.1.2-.2.2V80.8a1.69,1.69,0,0,0-.3-1,2.7,2.7,0,0,0-.7-.8,4.05,4.05,0,0,0-.9-.5,2.92,2.92,0,0,0-.9-.2h-10.5a3.29,3.29,0,0,0-2.4.7,2.41,2.41,0,0,0-.7,1.8v49.6a2.35,2.35,0,0,0,.7,1.9,2.59,2.59,0,0,0,1.4.6,4.14,4.14,0,0,0,1.6.2h9.7a3.75,3.75,0,0,0,1.1-.1,2.35,2.35,0,0,0,1-.5,2.26,2.26,0,0,0,.8-1.1,4,4,0,0,0,.3-1.5V102.1a8.79,8.79,0,0,1,1-3.6,10.91,10.91,0,0,1,2.3-2.9,11.73,11.73,0,0,1,3-1.9,7.3,7.3,0,0,1,3.1-.7,8.42,8.42,0,0,1,3.5.7,9.19,9.19,0,0,1,3.1,2,10.59,10.59,0,0,1,2.2,2.9,7.19,7.19,0,0,1,.8,3.5v28a3,3,0,0,0,.7,2.4,4,4,0,0,0,2.5.6h9.9a2.79,2.79,0,0,0,2.2-.8,3.73,3.73,0,0,0,.7-2.5v-28A23.55,23.55,0,0,0,166.64,92.6Z"/></g></g></svg>