<svg xmlns="http://www.w3.org/2000/svg" viewBox="0 0 299 559"><defs><style>.cls-1{fill:#a0616a;}.cls-2{fill:#2f2e41;}.cls-3{fill:#ccc;}.cls-4{fill:none;}</style></defs><g id="Capa_2" data-name="Capa 2"><g id="b98a272f-6f4b-42b8-9340-78d62e517c68"><g id="b7b1963f-580a-432b-accc-2d0244cec1c5"><path id="ef92db75-82b1-4bdc-bb35-3743c646513c" class="cls-1" d="M114.11,511.92H97.93l-7.7-62.43h23.89Z"/><path id="be98cec8-ca71-46b0-afdd-2a884d94ea8b" class="cls-2" d="M81.6,507.29h36V527H66.71v-4.77A14.89,14.89,0,0,1,81.6,507.29Z"/><path id="abfee3c5-ff11-48c7-921c-6c90de4fadef" class="cls-1" d="M178.81,511.92H162.62l-7.7-62.43h23.89Z"/><path id="fd19061e-e10a-4611-97bb-4a155c9edfee" class="cls-2" d="M146.29,507.29h36V527H131.41v-4.77a14.89,14.89,0,0,1,14.88-14.89Z"/><path id="a70ff991-d3b0-4688-a8cf-70f68c9b4702" class="cls-1" d="M85.91,331.94a12.39,12.39,0,0,0,.57-17.5A13.28,13.28,0,0,0,84.85,313l6.93-27.42-15.64-8.28-9.25,38.87a12.45,12.45,0,0,0,19,15.79Z"/><path id="a858fd09-61d6-4242-9d67-7403c8362434" class="cls-2" d="M184.57,284l-1.32,92.42-1.32,121.47-29.05-2.64L138.36,327.6,119.87,495.28h-30l-3-169,10.57-37Z"/><path id="eb821483-141e-4d8c-b2c3-be9c70c9f779" class="cls-3" d="M94.53,289.88l-.43-.2,16.56-113.22-8.42-34.23a7.5,7.5,0,0,1,4.64-8.8L122,127.76,127.37,113l42.21,4.55,1,11.5c4.57,1.47,42.23,14,39.64,28.3-2.57,14.11-17.71,58.49-18.48,60.74l-2.65,63.65-.33.16c-.39.2-29.48,14.5-61.09,14.5C116.59,296.44,105.14,294.67,94.53,289.88Z"/><path id="aa45b358-6308-4c73-8d1d-00728ecfcc3a" class="cls-3" d="M66.34,301.76,79.65,216.6c.08-.5,7.95-50.36,10.56-66,2.7-16.17,15.22-16.36,15.35-16.36h6.89l8,36.26-15.87,72.77L90,303.55Z"/><path id="b7fe92b4-de1b-4200-a6c6-8b9f915710d4" class="cls-1" d="M152.66,293.36a12.38,12.38,0,0,1,13-11.79,13.06,13.06,0,0,1,2.16.3l16.37-23.07,16.45,6.53L177,297.58a12.44,12.44,0,0,1-24.35-4.23Z"/><path id="ac6373f4-3eaa-40bf-871f-e19bddead59b" class="cls-3" d="M170.62,273.51l29.11-48.95-11.86-31.63L204,149.86l.6.25c.39.17,9.57,4.27,10.93,18.93l18.56,58.34-49.54,64.27Z"/><circle id="b6d36705-587c-43da-a8ac-ac3efa3ab058" class="cls-1" cx="146.83" cy="75.38" r="30.39"/><path id="fae5a11b-ad0d-4fa1-abec-f604f1b46735" class="cls-2" d="M126.43,60.57c3.14,3.73,8.47,4.78,13.38,5.2,10,.88,24.47-.54,34.22-2.79.7,6.74-1.2,14,2.77,19.56A91.38,91.38,0,0,0,180,62c.12-3,.07-6.08-1.14-8.82S175,48.07,172,48.05a17.28,17.28,0,0,1,7.72-3.3l-9.65-4.85,2.48-2.55-17.47-1.07,5.06-3.21a109.11,109.11,0,0,0-23-.72c-3.56.26-7.28.76-10.17,2.82s-4.55,6.17-2.76,9.19A13.35,13.35,0,0,0,114,52.43c-1.28,3.26-1.17,6.88-.77,10.36a73.49,73.49,0,0,0,3.85,16.28"/></g><rect class="cls-4" width="299" height="559"/></g></g></svg>