<svg xmlns="http://www.w3.org/2000/svg" width="550.444" height="386.325"><g data-name="Grupo 3"><path data-name="Trazado 7" d="M442.041 359.314c-3.573 13.606-16.092 22.108-16.092 22.108s-6.727-13.557-3.154-27.162 16.092-22.108 16.092-22.108 6.726 13.556 3.154 27.162z" fill="#3f3d56"/><path data-name="Trazado 8" d="M436.626 356.436c-10.007 9.886-11.126 24.979-11.126 24.979s15.1-.937 25.112-10.823 11.127-24.979 11.127-24.979-15.113.936-25.113 10.823z" fill="#ad343e"/><path data-name="Trazado 9" d="M74.036 307.846h18.846l46.441-18.173s32.98-13.461 30.288 12.115-7.4 59.9-7.4 59.9-14.807-6.731-22.884-4.711-2.692-41.057-2.692-41.057-65.96 31.634-72.017 27.6-7.4-32.307-7.4-32.307z" fill="#2f2e41"/><path data-name="Trazado 10" d="M74.036 307.846h18.846l46.441-18.173s32.98-13.461 30.288 12.115-7.4 59.9-7.4 59.9-14.807-6.731-22.884-4.711-2.692-41.057-2.692-41.057-65.96 31.634-72.017 27.6-7.4-32.307-7.4-32.307z" opacity=".1"/><path data-name="Trazado 11" d="M103.728 248.828l22.807 32.769 53.172 44.422s49.133 11.442 42.4 19.519-47.787-8.077-47.787-8.077-61.249-44.422-63.268-47.787-24.23-35-24.23-35z" fill="#a0616a"/><path data-name="Trazado 12" d="M103.728 248.828l22.807 32.769 53.172 44.422s49.133 11.442 42.4 19.519-47.787-8.077-47.787-8.077-61.249-44.422-63.268-47.787-24.23-35-24.23-35z" opacity=".1"/><path data-name="Trazado 13" d="M90.19 222.367l14.807 28.942s-3.365 14.134-8.75 15.48-28.268-17.5-28.268-17.5z" fill="#d0cde1"/><path data-name="Trazado 14" d="M90.19 222.367l14.807 28.942s-3.365 14.134-8.75 15.48-28.268-17.5-28.268-17.5z" fill="#c8c8c7" opacity=".1"/><path data-name="Trazado 15" d="M270.833 292.861l4.374 18.043a1.127 1.127 0 01-.022.609l-19.841 62a1.127 1.127 0 01-2.193-.216l-2.745-24.154a1.126 1.126 0 01.048-.476l18.212-55.892a1.127 1.127 0 012.166.083z" fill="#2f2e41"/><path data-name="Trazado 16" d="M269.228 294.385l4.038 15.481-17.5 56.537-4.038-17.5z" fill="#f2f2f2"/><path data-name="Trazado 17" d="M181.053 378.518c.673 2.019 70-.673 70.671-1.346a14.613 14.613 0 001.481-2.692 101.167 101.167 0 001.212-2.692l-2.692-21.794-68.652-2.436s-1.716 18.469-2.066 26.922a20.214 20.214 0 00.046 4.038z" fill="#2f2e41"/><path data-name="Trazado 18" d="M242.975 352.941l1.345 18.845h-30.287v-18.845z" opacity=".1"/><path data-name="Trazado 19" d="M203.938 358.998l.181-.036-.854 8.113h-16.827v-8.077z" opacity=".1"/><path data-name="Trazado 20" d="M181.053 378.518c.673 2.019 70-.673 70.671-1.346a14.611 14.611 0 001.481-2.692h-72.2a20.2 20.2 0 00.048 4.038z" opacity=".1"/><circle data-name="Elipse 1" cx="30.288" cy="30.288" r="30.288" transform="translate(69.998 152.369)" fill="#a0616a"/><path data-name="Trazado 21" d="M98.267 209.579s-10.1 17.5-12.115 26.922-30.288-18.846-30.288-18.846l-3.7-9.759s26.586-12.452 24.567-22.547 21.536 24.23 21.536 24.23z" fill="#a0616a"/><path data-name="Trazado 22" d="M103.651 262.078l27.6 36.345 65.954 49.133s47.787 10.1 37.018 17.5-41.73-6.731-41.73-6.731-66.631-35.669-80.765-50.479-40.384-39.71-40.384-39.71z" fill="#a0616a"/><path data-name="Trazado 23" d="M66.633 318.615l8.077 12.788 48.2-15.165a37.9 37.9 0 0131.555 3.807c8.413 5.3 13.8 13.714 1.683 26.165-24.23 24.9-40.384 11.442-40.384 11.442s-81.44 38.365-94.9 19.519S6.73 348.903 6.73 348.903s51.827-32.307 59.903-30.288z" fill="#2f2e41"/><path data-name="Trazado 24" d="M167.591 363.034s21.538 14.134-4.038 20.865-44.422-2.692-44.422-2.692-22.211 0-22.211-11.442 7.4-12.788 7.4-12.788l22.884 3.365s27.599-7.401 40.387 2.692z" fill="#c8c8c7"/><path data-name="Trazado 25" d="M125.129 175.038a22.582 22.582 0 006.347 2.273c2.241.267 4.793-.516 5.854-2.508a7.873 7.873 0 00.665-3.561c.081-3.7-.186-7.691-2.528-10.552-1.491-1.82-3.666-2.968-5.209-4.744a22.417 22.417 0 01-2.633-4.3c-3-5.636-7.443-11.052-13.618-12.677a29.532 29.532 0 00-7.949-.608l-15.549.219a27.072 27.072 0 00-7.48.805c-5 1.513-8.649 5.722-11.986 9.747a60.956 60.956 0 00-6.874 9.487 33.29 33.29 0 00-3.946 16.311 15.261 15.261 0 00.559 4.316 23.948 23.948 0 001.7 3.726c2.916 5.728 4.647 12.882 1.363 18.406 5.7-2.33 11.349-5.386 15.112-10.265 1.683-2.183 3-4.738 5.247-6.34s5.9-1.741 7.338.61a6.577 6.577 0 01.742 3.081 14.12 14.12 0 00.85 5.2c.748 1.6 2.53 2.894 4.232 2.415 2.93-.825 2.65-5.323 4.907-7.366 1.714-1.552 4.359-1.255 6.561-1.959a9.737 9.737 0 005.588-5.5c.834-1.87.822-6.764 2.4-7.777 1.977-1.276 6.476.743 8.307 1.561z" fill="#2f2e41"/><path data-name="Trazado 26" d="M49.758 204.7a7.988 7.988 0 014.158.011c4.321 1.16 14.006 4.231 16.083 8.9 2.692 6.058 12.115 15.48 12.115 15.48s12.788 12.788 10.1 21.538-12.788 18.846-12.788 18.846 2.692 41.73-10.769 52.5-18.846 3.365-18.846 13.461S8.081 377.165.004 357.647c0 0 4.038-36.345 2.692-49.133-1.33-12.599.612-91.235 47.062-103.814z" fill="#c8c8c7"/><path data-name="Trazado 27" d="M71.344 221.695s41.057 30.288 33.653 43.076c0 0-24.9 12.115-30.288 11.442s-26.249-24.23-31.634-26.249-8.076-38.366 28.269-28.269z" fill="#c8c8c7"/><circle data-name="Elipse 2" cx="33.25" cy="33.25" r="33.25" transform="translate(221.527 88.218)" fill="#f2f2f2"/><path data-name="Trazado 28" d="M529.404 78.29H343.077V39.297h186.327zm-185.506-.821h184.684V40.118H343.898z" fill="#3f3d56"/><path data-name="Rectángulo 6" fill="#ad343e" d="M330.354 47.095h185.505v38.168H330.354z"/><circle data-name="Elipse 3" cx="2.873" cy="2.873" r="2.873" transform="translate(210.215 4.925)" fill="#ad343e"/><circle data-name="Elipse 4" cx="2.873" cy="2.873" r="2.873" transform="translate(220.064 4.925)" fill="#ad343e"/><circle data-name="Elipse 5" cx="2.873" cy="2.873" r="2.873" transform="translate(229.914 4.925)" fill="#ad343e"/><path data-name="Trazado 29" d="M550.443 224.904H204.879V0h345.565zm-344.744-.821h343.923V.821H205.7z" fill="#3f3d56"/><path data-name="Rectángulo 7" fill="#3f3d56" d="M205.29 12.45h344.744v.821H205.29z"/><path data-name="Trazado 30" d="M213.906 9.85a3.283 3.283 0 113.283-3.283 3.283 3.283 0 01-3.283 3.283zm0-5.746a2.462 2.462 0 102.462 2.462 2.462 2.462 0 00-2.462-2.462z" fill="#3f3d56"/><path data-name="Trazado 31" d="M223.758 9.85a3.283 3.283 0 113.283-3.283 3.283 3.283 0 01-3.283 3.283zm0-5.746a2.462 2.462 0 102.462 2.462 2.462 2.462 0 00-2.462-2.462z" fill="#3f3d56"/><path data-name="Trazado 32" d="M233.609 9.85a3.283 3.283 0 113.283-3.283 3.283 3.283 0 01-3.283 3.283zm0-5.746a2.462 2.462 0 102.463 2.462 2.462 2.462 0 00-2.463-2.462z" fill="#3f3d56"/><path data-name="Rectángulo 8" fill="#3f3d56" d="M313.115 12.86h.821v211.952h-.821z"/><path data-name="Rectángulo 9" fill="#f2f2f2" d="M352.311 117.069h60.33v8.208h-60.33z"/><path data-name="Rectángulo 10" fill="#f2f2f2" d="M447.116 117.069h60.33v8.208h-60.33z"/><path data-name="Trazado 33" d="M416.335 121.584h-61.151v-9.029h61.151zm-60.33-.821h59.51v-7.387h-59.51z" fill="#3f3d56"/><path data-name="Rectángulo 11" fill="#f2f2f2" d="M352.311 180.683h60.33v8.208h-60.33z"/><path data-name="Trazado 34" d="M416.335 185.197h-61.151v-9.029h61.151zm-60.33-.821h59.51v-7.386h-59.51z" fill="#3f3d56"/><path data-name="Rectángulo 12" fill="#f2f2f2" d="M352.516 148.055h155.135v8.208H352.516z"/><path data-name="Trazado 35" d="M511.347 153.391H355.389v-9.028h155.956zm-155.137-.82h154.314v-7.388H356.21z" fill="#3f3d56"/><path data-name="Trazado 36" d="M511.137 121.584h-61.149v-9.029h61.149zm-60.33-.821h59.509v-7.387h-59.507z" fill="#3f3d56"/><path data-name="Trazado 37" d="M260.404 146.022a33.761 33.761 0 1133.761-33.761 33.761 33.761 0 01-33.761 33.761zm0-66.5a32.738 32.738 0 1032.738 32.738 32.738 32.738 0 00-32.738-32.738z" fill="#3f3d56"/><path data-name="Rectángulo 13" fill="#3f3d56" d="M382.661 380.816h144.764v1.023H382.661z"/></g></svg>