<svg xmlns="http://www.w3.org/2000/svg" xmlns:xlink="http://www.w3.org/1999/xlink" width="185.85" height="96.04"><defs><linearGradient id="a" x1=".5" y1="1" x2=".5" gradientUnits="objectBoundingBox"><stop offset="0" stop-color="gray" stop-opacity=".251"/><stop offset=".54" stop-color="gray" stop-opacity=".122"/><stop offset="1" stop-color="gray" stop-opacity=".102"/></linearGradient><linearGradient id="b" x1="0" y1=".5" x2="1" y2=".5" xlink:href="#a"/><linearGradient id="c" x1="0" y1=".5" x2="1" y2=".5" xlink:href="#a"/></defs><g data-name="Grupo 8"><path data-name="Trazado 121" d="M430 199h-96.88a3.132 3.132 0 00-3.12 3.141v66.677a3.132 3.132 0 003.12 3.141h33.32v11.509h-1.519a1.588 1.588 0 00-1.582 1.594v2.309h3.1v1.366h30.239v-1.366h3.1v-2.309a1.588 1.588 0 00-1.582-1.594h-1.429v-.1h-.1V271.96H430a3.132 3.132 0 003.12-3.141v-66.678A3.132 3.132 0 00430 199z" transform="translate(-288.73 -199)" fill="url(#a)" opacity=".7"/></g><path data-name="Rectángulo 108" fill="#bdbdbd" d="M78.003 70.978h29.845v17.601H78.003z"/><g data-name="Grupo 9"><path data-name="Trazado 122" d="M78.59 72.699h28.73c.346-1.506.624-2.487.624-2.487H77.907s.308.978.683 2.487z" opacity=".1"/></g><path data-name="Trazado 123" d="M45.116.574h95.619a3.08 3.08 0 013.08 3.08V62.56H42.036V3.654a3.08 3.08 0 013.08-3.08z" fill="#535461"/><path data-name="Trazado 124" d="M140.736 72.126h-95.62a3.08 3.08 0 01-3.08-3.08V62.56h101.779v6.486a3.08 3.08 0 01-3.079 3.08z" fill="#bdbdbd"/><circle data-name="Elipse 70" cx="1.722" cy="1.722" r="1.722" transform="translate(91.203 65.621)" fill="#535461"/><path data-name="Trazado 125" d="M76.505 83.413h32.841a1.563 1.563 0 011.563 1.563v2.263H74.942v-2.263a1.563 1.563 0 011.563-1.563z" fill="#bdbdbd"/><g data-name="Grupo 10"><rect data-name="Rectángulo 109" width="63.134" height="35.921" rx="4.5" fill="url(#a)" transform="translate(61.358 13.606)" opacity=".5"/></g><rect data-name="Rectángulo 110" width="61.515" height="35.194" rx="4.5" transform="translate(62.168 13.87)" fill="#fff"/><g data-name="Grupo 11"><rect data-name="Rectángulo 111" width="6.78" height="6.103" rx="3.051" fill="#ad343e" transform="translate(79.304 18.923)" opacity=".5"/></g><rect data-name="Rectángulo 112" width="18.307" height=".677" rx=".339" transform="translate(88.117 18.923)" fill="#e0e0e0"/><rect data-name="Rectángulo 113" width="15.217" height=".677" rx=".339" transform="translate(88.117 20.958)" fill="#e0e0e0"/><g data-name="Grupo 12"><rect data-name="Rectángulo 114" width="6.78" height="6.103" rx="3.051" fill="#ad343e" transform="translate(79.304 28.416)" opacity=".5"/></g><rect data-name="Rectángulo 115" width="18.307" height=".677" rx=".339" transform="translate(88.117 28.416)" fill="#e0e0e0"/><rect data-name="Rectángulo 116" width="18.307" height=".677" rx=".339" transform="translate(88.117 30.45)" fill="#e0e0e0"/><g data-name="Grupo 13"><rect data-name="Rectángulo 117" width="6.78" height="6.103" rx="3.051" fill="#ad343e" transform="translate(79.304 37.909)" opacity=".5"/></g><rect data-name="Rectángulo 118" width="18.307" height=".677" rx=".339" transform="translate(88.117 37.909)" fill="#e0e0e0"/><rect data-name="Rectángulo 119" width="18.429" height=".677" rx=".339" transform="translate(88.117 39.943)" fill="#e0e0e0"/><path data-name="Línea 1" stroke="#ad343e" stroke-miterlimit="10" stroke-width="2" d="M92.925 8.035V3.826"/><path data-name="Línea 2" stroke="#ad343e" stroke-miterlimit="10" stroke-width="2" d="M92.925 15.114V9.591"/><circle data-name="Elipse 71" cx=".765" cy=".765" r=".765" transform="translate(92.16 14.349)" fill="#ad343e"/><circle data-name="Elipse 72" cx=".765" cy=".765" r=".765" transform="translate(92.16 8.035)" fill="none" stroke="#fff" stroke-miterlimit="10"/><path data-name="Línea 3" stroke="#ad343e" stroke-miterlimit="10" stroke-width="2" d="M92.925 8.035V3.826"/><path data-name="Línea 4" stroke="#ad343e" stroke-miterlimit="10" stroke-width="2" d="M92.925 15.114V9.591"/><circle data-name="Elipse 73" cx=".765" cy=".765" r=".765" transform="translate(92.16 14.349)" fill="#ad343e"/><circle data-name="Elipse 74" cx=".765" cy=".765" r=".765" transform="translate(92.16 8.035)" fill="none" stroke="#fff" stroke-miterlimit="10"/><path data-name="Línea 5" stroke="#ad343e" stroke-miterlimit="10" stroke-width="2" d="M92.925 53.377v5.931"/><path data-name="Línea 6" stroke="#ad343e" stroke-miterlimit="10" stroke-width="2" d="M92.925 48.02v5.523"/><circle data-name="Elipse 75" cx=".765" cy=".765" r=".765" transform="translate(92.16 47.255)" fill="#ad343e"/><path data-name="Línea 7" stroke="#ad343e" stroke-miterlimit="10" stroke-width="2" d="M58.488 32.236h-6.026"/><path data-name="Línea 8" stroke="#ad343e" stroke-miterlimit="10" stroke-width="2" d="M63.75 32.236h-5.523"/><circle data-name="Elipse 76" cx=".765" cy=".765" r=".765" transform="translate(62.985 31.471)" fill="#ad343e"/><g data-name="Grupo 14"><path data-name="Rectángulo 120" d="M78.098 83.317h29.845v.574H78.098z" opacity=".1"/></g><g data-name="Grupo 15"><path data-name="Trazado 126" d="M162.895 411.159h-13.851l.191-1.557c3.914-3.514 6.445-12.877 6.445-12.877a1.294 1.294 0 00-.166.034 9.725 9.725 0 00-5.072 2.541l.486-4.144c7.232-1.557 10.1-11.123 10.1-11.123a21.307 21.307 0 00-9.279 4.111l.712-6.088c4.89 1.678 9.948-7.236 9.948-7.236l-.191-.04.1-.061-.145.052a8.648 8.648 0 00-9.231 3.208l.071-.6q-.214.574-.417 1.125v.015q-.574 1.555-1.05 3.072-.415 1.3-.777 2.564v-.011a7.69 7.69 0 00-5.965-6.878s.6 11.875 5.152 9.931a90.546 90.546 0 00-1.064 4.988q-.285 1.571-.5 3.061l-.027.031.027-.023-.011.078q-.191 1.353-.325 2.636c.088-1.649-.212-6.413-5.826-10.89 0 0-7.461 13.113 5.261 15.688l.084.073-.019-.059.115.025.052-.673a70.675 70.675 0 00.044 8.437l.04.564h-14.01c-5.345 11.056 2.969 17.115 2.969 17.115h22.958c8.912-11.235 3.171-17.089 3.171-17.089zm-14.923-12.566z" transform="translate(-128.612 -340.935)" fill="url(#b)" opacity=".7"/></g><path data-name="Trazado 127" d="M19.652 74.422s-3.635-15.879 4.4-36.35" fill="none" stroke="#535461" stroke-miterlimit="10" stroke-width="3" opacity=".6"/><path data-name="Trazado 128" d="M5.494 69.638h28.121s5.548 7.079-3.061 17.6H8.364s-8.035-7.269-2.87-17.6z" fill="#ad343e"/><path data-name="Trazado 129" d="M23.648 39.124s2.8-4.974 9.491-3.444c0 0-5.535 9.424-10.522 6.338z" fill="#4db6ac"/><path data-name="Trazado 130" d="M21.876 44.402a7.221 7.221 0 00-5.764-6.426s.574 11.1 4.974 9.279z" fill="#4db6ac"/><path data-name="Trazado 131" d="M20.064 51.915s1.024-5.33 11.737-7.626c0 0-3.417 11.024-12.231 10.582z" fill="#4db6ac"/><path data-name="Trazado 132" d="M19.193 57.897s1.127-5.573-5.569-10.738c0 0-7.27 12.372 5.257 14.7z" fill="#4db6ac"/><path data-name="Trazado 133" d="M18.993 65.558a8.761 8.761 0 017.641-9.407s-3.074 11-7.653 12.96z" fill="#4db6ac"/><path data-name="Trazado 134" d="M22.713 42.084s7.27-5.548 10.331-6.5" fill="none" stroke="#535461" stroke-miterlimit="10" opacity=".3"/><path data-name="Trazado 135" d="M19.556 54.811s8.8-9.374 12.244-10.522" fill="none" stroke="#535461" stroke-miterlimit="10" opacity=".3"/><path data-name="Trazado 136" d="M16.112 37.976s5.357 7.27 4.974 9.183" fill="none" stroke="#535461" stroke-miterlimit="10" opacity=".3"/><path data-name="Trazado 137" d="M13.625 47.159s2.87 13.009 5.165 14.731" fill="none" stroke="#535461" stroke-miterlimit="10" opacity=".3"/><path data-name="Trazado 138" d="M18.982 69.16s4.592-12.627 7.653-13.009" fill="none" stroke="#535461" stroke-miterlimit="10" opacity=".3"/><g data-name="Grupo 16"><path data-name="Trazado 139" d="M33.618 69.638H5.494c-.063.128-.124.256-.191.383h27.358s5.412 6.908-2.755 17.218h.65c8.61-10.522 3.062-17.601 3.062-17.601z" opacity=".1"/></g><path data-name="Rectángulo 121" fill="#e0e0e0" d="M0 87.163h185.85v6.3H0z"/><path data-name="Rectángulo 122" fill="#e0e0e0" d="M7.874 93.463h170.099v2.577H7.874z"/><path data-name="Rectángulo 123" opacity=".1" d="M7.874 93.463h170.099v.859H7.874z"/><path data-name="Línea 9" stroke="#ad343e" stroke-miterlimit="10" stroke-width="2" d="M132.049 32.236h1.148"/><path data-name="Línea 10" stroke="#ad343e" stroke-miterlimit="10" stroke-width="2" d="M121.909 32.236h8.586"/><circle data-name="Elipse 77" cx=".765" cy=".765" r=".765" transform="translate(121.144 31.471)" fill="#ad343e"/><circle data-name="Elipse 78" cx=".765" cy=".765" r=".765" transform="translate(130.518 31.471)" fill="none" stroke="#fff" stroke-miterlimit="10"/><g data-name="Grupo 17"><path data-name="Trazado 140" d="M950.984 512.606l.019-.029q.059-.092.117-.191l.021-.036q.056-.094.105-.191l.017-.033c.038-.075.075-.149.107-.228a4.532 4.532 0 00.18-.48l.019-.063.05-.178.019-.084q.019-.08.034-.163a.518.518 0 01.017-.092c.006-.031.017-.107.025-.163a.419.419 0 01.012-.094 1.013 1.013 0 00.015-.176v-16.142h-2.65v-7.744h-3.252v7.744H943.6V483.14h-3.252v11.123h-1.223V481.55h-3.255v12.713H933v15.8a4.728 4.728 0 004.783 4.668h9.183a4.82 4.82 0 003.872-1.925q.071-.099.146-.2z" transform="translate(-776.367 -427.494)" fill="url(#c)" opacity=".7"/></g><path data-name="Rectángulo 124" fill="#535461" d="M159.885 61.412h3.061v19.131h-3.061z"/><path data-name="Rectángulo 125" fill="#3ad29f" d="M159.885 55.099h3.061v6.313h-3.061z"/><path data-name="Rectángulo 126" fill="#535461" d="M164.094 62.942h3.061v19.131h-3.061z"/><path data-name="Rectángulo 127" fill="#4d8af0" d="M164.094 56.629h3.061v6.313h-3.061z"/><path data-name="Rectángulo 128" fill="#535461" d="M169.26 66.195h3.061v19.131h-3.061z"/><path data-name="Rectángulo 129" fill="#f55f44" d="M169.26 59.881h3.061v6.313h-3.061z"/><path data-name="Trazado 141" d="M157.207 67.343h17.6v15.209a4.5 4.5 0 01-4.5 4.5h-8.609a4.5 4.5 0 01-4.5-4.5z" fill="#ad343e"/><g data-name="Grupo 18"><path data-name="Trazado 142" d="M157.207 67.343v.765h16.836v15.209a4.474 4.474 0 01-.957 2.772 4.486 4.486 0 001.722-3.537V67.343z" opacity=".1"/></g></svg>