<svg xmlns="http://www.w3.org/2000/svg" width="174.535" height="118.244"><g transform="translate(-10.56 -7.155)"><circle data-name="Elipse 39" cx="13.914" cy="13.914" r="13.914" transform="translate(114.548 53.637)" fill="#ad343e" opacity=".4"/><path data-name="Rectángulo 71" fill="#3f3d56" d="M54.222 84.56h77.59v21.029h-77.59z"/><path data-name="Trazado 105" d="M125.12 36.935l-3.1 1.466 2.742-2.05a15.479 15.479 0 00-1.5-1.97l-13.436 3.34 12.137-4.63a15.468 15.468 0 00-1.762-1.343l-20.474 3.3a15.343 15.343 0 00-3.361 9.576h30.819a15.335 15.335 0 00-2.065-7.689z" fill="#f2f2f2"/><path data-name="Trazado 106" d="M134.582 16.254A90.342 90.342 0 0025.66 39.668c28.358-6.214 77.731-16.97 108.922-23.414z" fill="#f2f2f2"/><path data-name="Rectángulo 72" fill="#2f2e41" d="M10.56 124.999h173.176v.363H10.56z"/><path data-name="Trazado 107" d="M111.929 44.766l-10.49-15.582s15.886 5.546 14.083 15.582z" fill="#3f3d56"/><path data-name="Trazado 108" d="M111.853 44.766l10.49-15.582s-15.886 5.546-14.083 15.582z" fill="#ad343e"/><path data-name="Trazado 109" d="M131.904 125.362H54.133V17.289h77.771zm-77.409-.338h77.046v-107.4H54.496z" fill="#2f2e41"/><path data-name="Rectángulo 73" fill="#2f2e41" d="M54.393 20.041h77.409v.363H54.393z"/><circle data-name="Elipse 40" cx=".725" cy=".725" r=".725" transform="translate(57.758 18.014)" fill="#ad343e"/><circle data-name="Elipse 41" cx=".725" cy=".725" r=".725" transform="translate(59.625 18.014)" fill="#ad343e"/><circle data-name="Elipse 42" cx=".725" cy=".725" r=".725" transform="translate(61.493 18.014)" fill="#ad343e"/><path data-name="Rectángulo 74" fill="#ad343e" d="M59.083 22.546h3.263v1.813h-3.263z"/><path data-name="Rectángulo 75" fill="#ad343e" d="M58.836 34.968h15.953v1.813H58.836z"/><path data-name="Rectángulo 76" fill="#f2f2f2" d="M127.622 24.359h-15.953v-1.813h15.953z"/><path data-name="Rectángulo 77" fill="#f2f2f2" d="M58.592 37.865h26.83v1.088h-26.83z"/><path data-name="Rectángulo 78" fill="#f2f2f2" d="M58.626 40.072h25.38v1.088h-25.38z"/><path data-name="Rectángulo 79" fill="#f2f2f2" d="M58.782 42.279h18.491v1.088H58.782z"/><path data-name="Rectángulo 80" fill="#f2f2f2" d="M64.698 72.498h10.515v1.088H64.698z"/><path data-name="Rectángulo 81" fill="#f2f2f2" d="M64.711 74.705h9.946v1.088h-9.946z"/><path data-name="Rectángulo 82" fill="#f2f2f2" d="M64.769 76.911h7.247v1.088h-7.247z"/><path data-name="Rectángulo 83" fill="#f2f2f2" d="M87.538 72.498h10.515v1.088H87.538z"/><path data-name="Rectángulo 84" fill="#f2f2f2" d="M87.556 74.705h9.946v1.088h-9.946z"/><path data-name="Rectángulo 85" fill="#f2f2f2" d="M87.638 76.911h7.247v1.088h-7.247z"/><path data-name="Rectángulo 86" fill="#f2f2f2" d="M111.223 72.498h10.515v1.088h-10.515z"/><path data-name="Rectángulo 87" fill="#f2f2f2" d="M111.246 74.705h9.946v1.088h-9.946z"/><path data-name="Rectángulo 88" fill="#f2f2f2" d="M111.355 76.911h7.247v1.088h-7.247z"/><path data-name="Rectángulo 89" fill="#ad343e" d="M79.766 110.133h15.953v1.813H79.766z"/><path data-name="Rectángulo 90" fill="#f2f2f2" d="M79.417 113.215h26.83v1.088h-26.83z"/><path data-name="Rectángulo 91" fill="#f2f2f2" d="M79.466 115.572h25.38v1.088h-25.38z"/><path data-name="Rectángulo 92" fill="#f2f2f2" d="M79.689 117.929H98.18v1.088H79.689z"/><path data-name="Rectángulo 93" fill="#ad343e" opacity=".3" d="M61.815 53.332h63.087v.363H61.815z"/><path data-name="Rectángulo 94" fill="#ad343e" opacity=".3" d="M63.282 58.919h13.415v11.965H63.282z"/><path data-name="Rectángulo 95" fill="#bca0a0" d="M86.094 58.919h13.415v11.965H86.094z"/><path data-name="Rectángulo 96" fill="#bca0a0" d="M109.751 58.919h13.415v11.965h-13.415z"/><path data-name="Trazado 110" d="M91.089 70.637h-.177c0-.2.114-4.815 1.933-6.092l.1.145c-1.744 1.222-1.855 5.9-1.856 5.947z" fill="#ad343e"/><circle data-name="Elipse 43" cx=".885" cy=".885" r=".885" transform="translate(92.777 62.972)" fill="#ad343e"/><path data-name="Trazado 111" d="M93.504 66.807a2.755 2.755 0 01-1.422.061 2.511 2.511 0 012.582-.885 2.755 2.755 0 01-1.16.824z" fill="#ad343e"/><path data-name="Trazado 112" d="M114.852 70.637h-.177c0-.2.114-4.815 1.933-6.092l.1.145c-1.744 1.222-1.855 5.9-1.856 5.947z" fill="#ad343e"/><circle data-name="Elipse 44" cx=".885" cy=".885" r=".885" transform="translate(116.543 62.972)" fill="#ad343e"/><path data-name="Trazado 113" d="M117.262 66.807a2.755 2.755 0 01-1.422.061 2.511 2.511 0 012.582-.885 2.756 2.756 0 01-1.16.824z" fill="#ad343e"/><path data-name="Rectángulo 97" fill="#ad343e" d="M58.836 91.817h15.953v1.813H58.836z"/><path data-name="Rectángulo 98" fill="#f2f2f2" d="M58.592 94.737h26.83v1.088h-26.83z"/><path data-name="Rectángulo 99" fill="#f2f2f2" d="M58.626 96.944h25.38v1.088h-25.38z"/><path data-name="Rectángulo 100" fill="#f2f2f2" d="M58.782 99.151h18.491v1.088H58.782z"/><circle data-name="Elipse 45" cx="5.665" cy="5.665" r="5.665" transform="translate(108.738 88.394)" fill="#ad343e" opacity=".4"/><circle data-name="Elipse 46" cx="3.974" cy="3.974" r="3.974" transform="translate(100.658 92.668)" fill="#ad343e" opacity=".4"/><circle data-name="Elipse 47" cx="14.322" cy="14.322" r="14.322" transform="translate(26.604 90.464)" fill="#c8c8c7"/><path data-name="Rectángulo 101" fill="#c8c8c7" d="M34.399 116.025h4.351v7.795h-4.351z"/><path data-name="Rectángulo 102" fill="#c8c8c7" d="M43.101 116.025h4.351v7.795h-4.351z"/><ellipse data-name="Elipse 48" cx="3.626" cy="1.36" rx="3.626" ry="1.36" transform="translate(34.399 122.551)" fill="#c8c8c7"/><ellipse data-name="Elipse 49" cx="3.626" cy="1.36" rx="3.626" ry="1.36" transform="translate(40.968 122.37)" fill="#c8c8c7"/><circle data-name="Elipse 50" cx="4.895" cy="4.895" r="4.895" transform="translate(36.394 97.586)" fill="#fff"/><circle data-name="Elipse 51" cx="1.632" cy="1.632" r="1.632" transform="translate(39.657 98.955)" fill="#3f3d56"/><path data-name="Trazado 114" d="M27.033 93.6c-1.156-5.179 2.54-10.412 8.256-11.688s11.288 1.887 12.444 7.066-2.632 7.089-8.348 8.365-11.196 1.436-12.352-3.743z" fill="#ad343e"/><ellipse data-name="Elipse 52" cx="7.161" cy="2.248" rx="7.161" ry="2.248" transform="rotate(-65.077 97.821 13.562)" fill="#c8c8c7"/><ellipse data-name="Elipse 53" cx="2.248" cy="7.161" rx="2.248" ry="7.161" transform="rotate(-27.893 190.824 4.34)" fill="#c8c8c7"/><ellipse data-name="Elipse 54" cx="2.248" cy="7.161" rx="2.248" ry="7.161" transform="rotate(-21.078 314.273 -344.692)" fill="#2f2e41"/><circle data-name="Elipse 55" cx="14.322" cy="14.322" r="14.322" transform="translate(146.426 90.591)" fill="#c8c8c7"/><path data-name="Rectángulo 103" fill="#c8c8c7" d="M167.325 123.927l-4.351.012-.022-7.795 4.351-.012z"/><path data-name="Rectángulo 104" fill="#c8c8c7" d="M158.623 123.951l-4.351.012-.022-7.795 4.351-.012z"/><ellipse data-name="Elipse 56" cx="3.626" cy="1.36" rx="3.626" ry="1.36" transform="rotate(-.16 44011.188 -57259.828)" fill="#c8c8c7"/><ellipse data-name="Elipse 57" cx="3.626" cy="1.36" rx="3.626" ry="1.36" transform="rotate(-.16 43950.973 -54143.734)" fill="#c8c8c7"/><circle data-name="Elipse 58" cx="4.895" cy="4.895" r="4.895" transform="translate(155.48 97.706)" fill="#fff"/><circle data-name="Elipse 59" cx="1.632" cy="1.632" r="1.632" transform="translate(158.743 101.11)" fill="#3f3d56"/><path data-name="Trazado 115" d="M174.603 93.68c1.142-5.182-2.569-10.4-8.289-11.665s-11.282 1.919-12.424 7.1 2.652 7.082 8.372 8.342 11.199 1.405 12.341-3.777z" fill="#ad343e"/><ellipse data-name="Elipse 60" cx="7.161" cy="2.248" rx="7.161" ry="2.248" transform="rotate(-25.535 307.12 -323.462)" fill="#2f2e41"/><path data-name="Trazado 116" d="M167.798 110.059c0 1.4-3.6 4.18-7.6 4.191s-7.771-3.924-7.775-5.326 3.756.261 7.761.25 7.608-.515 7.614.885z" fill="#fff"/><circle data-name="Elipse 61" cx="19.986" cy="19.986" r="19.986" transform="translate(145.123 66.145)" fill="#ad343e" opacity=".4"/><circle data-name="Elipse 62" cx="14.322" cy="14.322" r="14.322" transform="translate(30.757 52.044)" fill="#c8c8c7"/><path data-name="Rectángulo 105" fill="#c8c8c7" d="M36.653 75.31l4.281.775-1.388 7.67-4.282-.775z"/><path data-name="Rectángulo 106" fill="#c8c8c7" d="M43.054 76.756l4.281.775-1.388 7.67-4.282-.775z"/><ellipse data-name="Elipse 63" cx="1.36" cy="3.626" rx="1.36" ry="3.626" transform="rotate(-49.75 111.27 -2.067)" fill="#c8c8c7"/><ellipse data-name="Elipse 64" cx="1.36" cy="3.626" rx="1.36" ry="3.626" transform="rotate(-49.75 106.615 3.97)" fill="#c8c8c7"/><circle data-name="Elipse 65" cx="4.895" cy="4.895" r="4.895" transform="translate(39.15 58.209)" fill="#fff"/><circle data-name="Elipse 66" cx="1.632" cy="1.632" r="1.632" transform="translate(44.159 59.818)" fill="#3f3d56"/><path data-name="Trazado 117" d="M33.776 52.059c-.215-5.3 4.354-9.793 10.206-10.031s10.771 3.868 10.986 9.17-3.853 6.507-9.7 6.744-11.273-.581-11.492-5.883z" fill="#ad343e"/><ellipse data-name="Elipse 67" cx="7.161" cy="2.248" rx="7.161" ry="2.248" transform="rotate(-12.84 304.386 -181.405)" fill="#c8c8c7"/><ellipse data-name="Elipse 68" cx="7.161" cy="2.248" rx="7.161" ry="2.248" transform="rotate(-12.84 311.111 -66.952)" fill="#c8c8c7"/><path data-name="Trazado 118" d="M41.145 71.569a3.263 3.263 0 006.422 1.163c.321-1.773-1.05-2.4-2.823-2.722s-3.278-.214-3.599 1.559z" fill="#fff"/><path data-name="Rectángulo 107" fill="#bca0a0" d="M62.363 51.442l12.85 3.852-3.436 11.461-12.85-3.852z"/><path data-name="Trazado 119" d="M63.645 64.068l-.168-.054c.06-.187 1.492-4.579 3.6-5.28l.056.168c-2.024.672-3.474 5.121-3.488 5.166z" fill="#ad343e"/><circle data-name="Elipse 69" cx=".885" cy=".885" r=".885" transform="translate(67.15 57.415)" fill="#ad343e"/></g></svg>