<svg xmlns="http://www.w3.org/2000/svg" width="183.641" height="125.145"><defs><linearGradient id="a" x1=".5" y1="1" x2=".5" gradientUnits="objectBoundingBox"><stop offset="0" stop-color="gray" stop-opacity=".251"/><stop offset=".535" stop-color="gray" stop-opacity=".122"/><stop offset="1" stop-color="gray" stop-opacity=".102"/></linearGradient></defs><path data-name="Trazado 38" d="M27.569 101.667c-1.32 5.028-5.947 8.17-5.947 8.17s-2.486-5.01-1.166-10.038 5.947-8.17 5.947-8.17 2.486 5.01 1.166 10.038z" fill="#3f3d56"/><path data-name="Trazado 39" d="M25.566 100.604c-3.7 3.654-4.112 9.231-4.112 9.231s5.582-.346 9.28-4 4.112-9.231 4.112-9.231-5.582.346-9.28 4z" fill="#ad343e"/><rect data-name="Rectángulo 16" width="20.211" height="8.601" rx="4.3" transform="translate(12.865 108.366)" fill="#ad343e"/><g data-name="Grupo 4"><path data-name="Trazado 40" d="M943.3 649.884v-3.1h-15.5v14.333a3.022 3.022 0 003.022 3.022h9.452a3.022 3.022 0 003.022-3.022v-3.177a4.029 4.029 0 100-8.058zm0 6.508v-4.959a2.479 2.479 0 010 4.959z" transform="translate(-774.016 -547.012)" fill="url(#a)" opacity=".7"/></g><path data-name="Trazado 41" d="M168.787 103.357a3.678 3.678 0 103.679 3.678 3.678 3.678 0 00-3.679-3.678zm0 5.942a2.264 2.264 0 112.264-2.264 2.264 2.264 0 01-2.264 2.264z" fill="#ad343e"/><path data-name="Trazado 42" d="M168.787 103.357a3.678 3.678 0 103.679 3.678 3.678 3.678 0 00-3.679-3.678zm0 5.942a2.264 2.264 0 112.264-2.264 2.264 2.264 0 01-2.264 2.264z" opacity=".1"/><path data-name="Trazado 43" d="M154.638 100.527h14.148v14a1.843 1.843 0 01-1.843 1.843h-10.462a1.843 1.843 0 01-1.843-1.843z" fill="#ad343e"/><path data-name="Rectángulo 17" fill="#e0e0e0" d="M0 116.373h183.641v6.225H0z"/><g data-name="Grupo 5"><path data-name="Trazado 44" d="M486.791 193.721c-1.968-7.144-13.127-12.361-21.522-13.518v-6.273l.027-.009v-.232a20.972 20.972 0 0012.668-13.277 22.66 22.66 0 001.352-2.914c.9-.326 1.573-1.8 1.573-3.58a6.252 6.252 0 00-.253-1.8 22.963 22.963 0 00.168-2.726 22.718 22.718 0 00-7.5-16.9 4.436 4.436 0 00.071-1.111c-.19-2.935-3.325-4.929-6.263-5.063a6.2 6.2 0 001.046-6.548c-1.874 2.73-5.72 3.02-9.031 3.041a2.709 2.709 0 001.241-3.82c-3.46 4.638-10.205 5.5-14.321 9.564a12.073 12.073 0 00-2.227 3.037 22.73 22.73 0 00-8.567 17.8 22.984 22.984 0 00.165 2.7 6.231 6.231 0 00-.261 1.82c0 1.784.683 3.267 1.586 3.584a22.659 22.659 0 001.358 2.924 20.968 20.968 0 0012.579 13.23v6.537c-8.428 1.137-19.675 6.395-21.626 13.6-1.685 6.219-3.483 13.049-4.378 17.059 7.669 5.389 23.761 8.553 33.846 8.553 9.582 0 25.243-2.856 32.686-7.763-.808-4.404-2.659-11.536-4.417-17.915z" transform="translate(-366 -119)" fill="url(#a)" opacity=".7"/></g><path data-name="Trazado 45" d="M92.503 98.626c9.243 0 24.351-2.755 31.531-7.488-.778-4.25-2.567-11.128-4.263-17.284-2.16-7.839-15.79-13.274-23.921-13.274h-7.835c-8.156 0-21.806 5.466-23.939 13.339-1.625 6-3.36 12.588-4.223 16.456 7.398 5.199 22.921 8.251 32.65 8.251z" fill="#ad343e"/><circle data-name="Elipse 7" cx="21.973" cy="21.973" r="21.973" transform="translate(70.053 9.123)" fill="#72351c"/><path data-name="Trazado 46" d="M84.934 49.398h14.08v11.264a7.04 7.04 0 01-7.04 7.04 7.04 7.04 0 01-7.04-7.04V49.398z" opacity=".1"/><path data-name="Trazado 47" d="M86.954 48.877h10.04a2.019 2.019 0 012.02 2.02v9.244a7.04 7.04 0 01-7.04 7.04 7.04 7.04 0 01-7.04-7.04v-9.244a2.02 2.02 0 012.02-2.02z" fill="#fda57d"/><path data-name="Trazado 48" d="M84.96 54.714a20.264 20.264 0 0014.079.039v-1.73H84.96z" opacity=".1"/><circle data-name="Elipse 8" cx="20.181" cy="20.181" r="20.181" transform="translate(71.845 15.296)" fill="#fda57d"/><path data-name="Trazado 49" d="M77.651 17.121s8.5 17.264 32.5 7.235l-5.585-8.759-9.9-3.554z" opacity=".1"/><path data-name="Trazado 50" d="M77.651 16.867s8.5 17.264 32.5 7.235l-5.585-8.759-9.9-3.554z" fill="#72351c"/><path data-name="Trazado 51" d="M77.576 15.7a11.659 11.659 0 012.89-4.7c3.97-3.924 10.477-4.752 13.815-9.226a2.613 2.613 0 01-1.2 3.685c3.194-.021 6.9-.3 8.712-2.934a5.982 5.982 0 01-1.009 6.316c2.835.129 5.859 2.052 6.042 4.884a5.639 5.639 0 01-2.611 4.754 14.512 14.512 0 01-5.272 1.985c-5.385 1.188-24.883 6.168-21.367-4.764z" fill="#72351c"/><path data-name="Trazado 52" d="M112.206 35.651h-.53l-10.409 9.267c-10.028-4.7-17.391 0-17.391 0l-10.917-8.886-1.1.138a20.179 20.179 0 1040.354-.519zm-20.21 12.823c-3.926 0-7.109-.8-7.109-1.777s3.183-1.777 7.109-1.777 7.109.8 7.109 1.777-3.183 1.777-7.109 1.777z" fill="#72351c"/><ellipse data-name="Elipse 9" cx="1.877" cy="3.52" rx="1.877" ry="3.52" transform="translate(69.96 31.938)" fill="#fda57d"/><ellipse data-name="Elipse 10" cx="1.877" cy="3.52" rx="1.877" ry="3.52" transform="translate(110.327 31.938)" fill="#fda57d"/><g data-name="Grupo 6"><rect data-name="Rectángulo 18" width="78.097" height="44.971" rx="14.5" fill="url(#a)" transform="translate(52.772 71.401)" opacity=".7"/></g><rect data-name="Rectángulo 19" width="75.267" height="44.142" rx="22.071" transform="translate(54.187 72.231)" fill="#535461"/><circle data-name="Elipse 11" cx="2.547" cy="2.547" r="2.547" transform="translate(89.274 91.755)" fill="#fff"/><path data-name="Rectángulo 20" fill="#e0e0e0" d="M7.781 122.598h168.078v2.547H7.781z"/><path data-name="Rectángulo 21" opacity=".1" d="M7.781 122.598h168.078v.849H7.781z"/><path data-name="Trazado 53" d="M166.239 100.527v13.087a2.759 2.759 0 01-2.759 2.759h1.415a2.759 2.759 0 002.759-2.759v-13.087z" opacity=".1"/><path data-name="Trazado 54" d="M157.43 89.979a.826.826 0 00-.625.317c-.186.336.151.716.458.947a6.086 6.086 0 011.55 1.443 1.808 1.808 0 01.085 2c-.55.746-1.862.906-1.99 1.825-.082.589.428 1.092.944 1.388 1.274.73 2.917.925 3.84 2.067a2.977 2.977 0 012.087-1.433c.851-.194 1.736-.179 2.6-.311a.9.9 0 00.717-.38c.241-.49-.446-1.077-.209-1.569.181-.374.711-.345 1.1-.495a1.431 1.431 0 00.712-1.708 3.216 3.216 0 00-1.217-1.58 13.63 13.63 0 00-4.9-2.266 12.565 12.565 0 00-2.605-.6 13.028 13.028 0 00-2.547.355z" fill="#eee"/></svg>