<svg width="24" height="24" viewBox="0 0 24 24" fill="none" xmlns="http://www.w3.org/2000/svg">
<path d="M11.38 2.01901C10.6431 2.70563 10.0521 3.53364 9.64219 4.45363C9.23227 5.37362 9.01185 6.36676 8.99408 7.37379C8.97632 8.38082 9.16156 9.38111 9.53877 10.315C9.91598 11.2489 10.4774 12.0972 11.1896 12.8094C11.9018 13.5216 12.7501 14.083 13.684 14.4602C14.6179 14.8374 15.6182 15.0227 16.6252 15.0049C17.6323 14.9872 18.6254 14.7667 19.5454 14.3568C20.4654 13.9469 21.2934 13.3559 21.98 12.619C21.8234 15.1592 20.7039 17.544 18.8496 19.2871C16.9953 21.0303 14.546 22.0005 12.001 22C6.477 22 2 17.523 2 12C2 6.68501 6.146 2.33901 11.38 2.01901Z" fill="#94A3B8"/>
</svg>
