<svg xmlns="http://www.w3.org/2000/svg" viewBox="0 0 70.13 97.22"><defs><style>.cls-1{fill:#fff;}</style></defs><g id="Capa_2" data-name="Capa 2"><g id="Capa_1-2" data-name="Capa 1"><path class="cls-1" d="M16.29,97.22h0ZM23,51.86,0,1.71,6.85,0,22.92,34.71c.22-.44.44-.85.66-1.25q.74-1.3,1.77-3.21c.68-1.25,1.51-2.89,2.47-4.89s2.09-4.56,3.46-7.81l-.13-.28-.24-.74h0L25,2.63,31.69.79l3.29,8c.25-.58.48-1.14.72-1.68Q36.42,5.41,37,4.14c.42-1,.78-1.83,1.08-2.59L38.33.8l6.85,1.83-6.24,15c.43,1,.87,2,1.32,2.88S41.4,22.68,42.12,24s1.55,2.92,2.54,4.87c.76,1.48,1.62,3.3,2.59,5.42.41-1,.86-2,1.35-3.12.81-1.85,1.68-3.75,2.58-5.72S53,21.51,54,19.52s1.83-3.9,2.67-5.71c2-4.29,4.1-8.72,6.26-13.15L63.2,0l6.93,1.7L47.31,51.64,35.11,26.32c-.73,1.65-1.48,3.25-2.23,4.77-1,2.05-2.08,4.11-3.13,6.17s-2.08,4.11-3.07,6.17-2,4.25-2.93,6.54Z"/></g></g></svg>